<svg width="120" height="120" viewBox="0 0 80 80" fill="none" xmlns="http://www.w3.org/2000/svg">
<path opacity="0.03" d="M40 78.67C61.355 78.67 78.67 61.355 78.67 40C78.67 18.645 61.355 1.33 40 1.33C18.645 1.33 1.33 18.645 1.33 40C1.33 61.355 18.645 78.67 40 78.67Z" fill="#030213"/>
<path d="M25.33 23.33L18.67 30V50L25.33 56.67" stroke="#030213" stroke-width="4" stroke-linecap="round" stroke-linejoin="round"/>
<path d="M56.67 23.33L63.33 30V50L56.67 56.67" stroke="#030213" stroke-width="4" stroke-linecap="round" stroke-linejoin="round"/>
<path opacity="0.7" d="M52 28H28C26.527 28 25.33 29.197 25.33 30.67C25.33 32.143 26.527 33.33 28 33.33H52C53.473 33.33 54.67 32.143 54.67 30.67C54.67 29.197 53.473 28 52 28Z" fill="#FFD93D"/>
<path opacity="0.7" d="M58.67 37.33H28C26.527 37.33 25.33 38.527 25.33 40C25.33 41.473 26.527 42.67 28 42.67H58.67C60.143 42.67 61.33 41.473 61.33 40C61.33 38.527 60.143 37.33 58.67 37.33Z" fill="#6BCF7F"/>
<path opacity="0.7" d="M46.67 46.67H28C26.527 46.67 25.33 47.867 25.33 49.33C25.33 50.803 26.527 52 28 52H46.67C48.143 52 49.33 50.803 49.33 49.33C49.33 47.867 48.143 46.67 46.67 46.67Z" fill="#4ECDC4"/>
</svg>
