<svg width="120" height="120" viewBox="0 0 120 120" fill="none" xmlns="http://www.w3.org/2000/svg">
<path opacity="0.05" d="M60 118C92.0325 118 118 92.0325 118 60C118 27.9675 92.0325 2 60 2C27.9675 2 2 27.9675 2 60C2 92.0325 27.9675 118 60 118Z" fill="#E5E5E5"/>
<path d="M38 35L28 45V75L38 85" stroke="#E5E5E5" stroke-width="4" stroke-linecap="round" stroke-linejoin="round"/>
<path d="M85 35L95 45V75L85 85" stroke="#E5E5E5" stroke-width="4" stroke-linecap="round" stroke-linejoin="round"/>
<path opacity="0.8" d="M78 42H42C39.7909 42 38 43.7909 38 46C38 48.2091 39.7909 50 42 50H78C80.2091 50 82 48.2091 82 46C82 43.7909 80.2091 42 78 42Z" fill="#FFD93D"/>
<path opacity="0.8" d="M70 70H42C39.7909 70 38 71.7909 38 74C38 76.2091 39.7909 78 42 78H70C72.2091 78 74 76.2091 74 74C74 71.7909 72.2091 70 70 70Z" fill="#4ECDC4"/>
<path opacity="0.8" d="M88 56H42C39.7909 56 38 57.7909 38 60C38 62.2091 39.7909 64 42 64H88C90.2091 64 92 62.2091 92 60C92 57.7909 90.2091 56 88 56Z" fill="#6BCF7F"/>
<path d="M47.9231 61.4229C47.9231 61.6135 47.9465 61.7789 47.9933 61.9191C47.9933 62.0342 47.9663 62.1151 47.9124 62.1618C47.8584 62.2121 47.7901 62.2373 47.7074 62.2373C47.6283 62.2409 47.5438 62.2247 47.4539 62.1888C47.364 62.1564 47.2867 62.1151 47.222 62.0647C47.1609 62.0144 47.1213 61.9748 47.1034 61.9461C47.0854 61.9137 47.0566 61.867 47.0171 61.8058C46.956 61.5218 46.9272 61.3366 46.9308 61.2503C46.9344 61.164 46.9416 61.0903 46.9524 61.0292C46.7726 61.1227 46.6485 61.2036 46.5802 61.2719C46.4544 61.3978 46.3483 61.5596 46.262 61.7573C46.2333 61.9155 46.2099 61.9982 46.1919 62.0054C46.1739 62.0162 46.1506 62.0234 46.1218 62.027C46.093 62.0306 46.0625 62.0431 46.0301 62.0647C45.9978 62.0863 45.9672 62.1043 45.9384 62.1187C45.9097 62.133 45.8809 62.1474 45.8521 62.1618C45.7838 62.2013 45.7389 62.2211 45.7173 62.2211C45.5124 62.2858 45.3164 62.2571 45.1294 62.1348C45.0503 62.0809 44.9892 62.0126 44.9461 61.9299C44.9029 61.8436 44.8921 61.7519 44.9137 61.6548C45.0683 60.9897 45.2804 60.3119 45.5501 59.6216C45.7155 59.2009 45.8737 58.8683 46.0247 58.6238C46.0607 58.5663 46.0966 58.5052 46.1326 58.4404C46.2081 58.311 46.2602 58.2229 46.289 58.1762C46.253 58.0827 46.253 58.0018 46.289 57.9335C46.3285 57.8616 46.3861 57.8058 46.4616 57.7663C46.5407 57.7231 46.6306 57.6944 46.7312 57.68C46.8319 57.6656 46.9272 57.6638 47.0171 57.6746C47.2328 57.707 47.3479 57.7915 47.3622 57.9281C47.3407 57.9928 47.3101 58.0701 47.2706 58.16C47.2346 58.2499 47.1969 58.3416 47.1573 58.4351C47.1213 58.5249 47.0854 58.6094 47.0494 58.6885C47.0171 58.7676 46.9919 58.827 46.9739 58.8665C46.9596 58.9025 46.9362 58.9672 46.9038 59.0607C46.8751 59.1506 46.8427 59.2494 46.8067 59.3573C46.7744 59.4616 46.7438 59.5587 46.7151 59.6485L46.6503 59.8373C46.636 59.8876 46.6126 59.9649 46.5802 60.0692C46.5479 60.1699 46.5137 60.2957 46.4778 60.4467C46.5245 60.4108 46.5622 60.3694 46.591 60.3227C46.6234 60.2724 46.6683 60.2166 46.7258 60.1555C46.787 60.0944 46.8643 60.0351 46.9578 59.9775C47.0548 59.9164 47.1573 59.8769 47.2652 59.8589C47.4989 59.8193 47.711 59.8948 47.9016 60.0854C48.0454 60.2292 48.0903 60.4449 48.0364 60.7326C48.0148 60.8512 47.9879 60.9717 47.9555 61.0939C47.9267 61.2126 47.916 61.3222 47.9231 61.4229ZM48.8984 59.6647C48.9451 59.5461 49.0566 59.4652 49.2327 59.422C49.3981 59.3789 49.5527 59.3843 49.6966 59.4382C49.844 59.4957 49.9105 59.5892 49.8961 59.7187C49.8566 59.8445 49.8062 59.9991 49.7451 60.1825C49.6876 60.3622 49.6318 60.5474 49.5779 60.738C49.4341 61.227 49.3514 61.5721 49.3298 61.7735C49.2759 62.0971 49.186 62.2715 49.0602 62.2966C49.0242 62.3038 48.99 62.3092 48.9577 62.3128C48.8786 62.3164 48.8282 62.338 48.8067 62.3775C48.7851 62.4171 48.7491 62.4458 48.6988 62.4638C48.6485 62.4854 48.5927 62.4944 48.5316 62.4908C48.4741 62.4908 48.4148 62.4764 48.3536 62.4476C48.2925 62.4225 48.2404 62.3847 48.1972 62.3344C48.0966 62.2121 48.0768 62.0485 48.1379 61.8436C48.1954 61.4517 48.3411 60.9537 48.5748 60.3497C48.6862 60.0512 48.7941 59.8229 48.8984 59.6647ZM49.9177 58.8557C49.7415 58.8917 49.5977 58.8809 49.4862 58.8234C49.3784 58.7658 49.3154 58.6975 49.2975 58.6184C49.2795 58.5357 49.3046 58.4512 49.373 58.3649C49.4521 58.2571 49.5707 58.187 49.7289 58.1546C49.8008 58.1474 49.853 58.1438 49.8853 58.1438C49.9177 58.1438 49.9572 58.151 50.004 58.1654C50.1226 58.1762 50.1999 58.2283 50.2359 58.3218C50.2862 58.4009 50.2898 58.4908 50.2467 58.5915C50.2071 58.6921 50.0975 58.7802 49.9177 58.8557ZM52.1844 59.8481C52.2455 59.7366 52.3264 59.6809 52.4271 59.6809C52.5817 59.7672 52.6788 59.9074 52.7183 60.1016C52.7579 60.2957 52.7147 60.4701 52.5889 60.6247C52.5853 60.6283 52.5871 60.6589 52.5943 60.7164C52.659 61.076 52.6356 61.4499 52.5242 61.8382C52.4846 61.9676 52.4379 62.0881 52.384 62.1996C52.3336 62.311 52.2689 62.4512 52.1898 62.6202C52.1143 62.7892 52.0064 62.9564 51.8662 63.1218C51.726 63.2872 51.5678 63.4184 51.3916 63.5155C51.0213 63.724 50.6078 63.769 50.1512 63.6503C49.9858 63.5856 49.8707 63.5101 49.806 63.4238C49.7233 63.3196 49.6945 63.2081 49.7197 63.0894C49.7449 62.942 49.8312 62.8611 49.9786 62.8467C50.0505 62.8396 50.1404 62.8665 50.2482 62.9276C50.3705 62.9528 50.4694 62.951 50.5449 62.9222C50.6204 62.8935 50.6797 62.8665 50.7228 62.8413C50.7696 62.8198 50.8271 62.791 50.8954 62.7551C51.0141 62.6939 51.1489 62.5537 51.2999 62.3344C51.3826 62.2193 51.4653 62.0647 51.548 61.8706C51.415 62.0396 51.2028 62.1222 50.9116 62.1187C50.8289 62.1151 50.7354 62.1115 50.6312 62.1079C50.5305 62.1043 50.4388 62.0701 50.3561 62.0054C50.2734 61.9407 50.2069 61.8562 50.1565 61.7519C50.1062 61.6476 50.0721 61.529 50.0541 61.396C50.0397 61.2593 50.0397 61.1209 50.0541 60.9807C50.1116 60.4917 50.3165 60.1052 50.6689 59.8211C50.9098 59.6234 51.1687 59.5173 51.4455 59.5029C51.5786 59.4957 51.7044 59.5101 51.8231 59.5461C51.9669 59.6 52.0873 59.7007 52.1844 59.8481ZM51.5264 61.0724C51.5264 61.0616 51.5282 61.0526 51.5318 61.0454C51.5138 61.0382 51.4959 61.0328 51.4779 61.0292C51.4599 61.022 51.4276 61.0112 51.3808 60.9969C51.3341 60.9825 51.2712 60.9915 51.1921 61.0238C51.1129 61.0526 51.0428 61.0939 50.9817 61.1479C50.9242 61.1982 50.8774 61.2521 50.8415 61.3097C50.8091 61.3672 50.8037 61.4157 50.8253 61.4553C50.8505 61.4948 50.8936 61.511 50.9547 61.5038C51.0159 61.493 51.0824 61.4661 51.1543 61.4229C51.3125 61.3258 51.4365 61.209 51.5264 61.0724ZM55.7655 61.4229C55.7655 61.6135 55.7889 61.7789 55.8356 61.9191C55.8356 62.0342 55.8086 62.1151 55.7547 62.1618C55.7008 62.2121 55.6325 62.2373 55.5498 62.2373C55.4707 62.2409 55.3862 62.2247 55.2963 62.1888C55.2064 62.1564 55.1291 62.1151 55.0644 62.0647C55.0032 62.0144 54.9637 61.9748 54.9457 61.9461C54.9277 61.9137 54.899 61.867 54.8594 61.8058C54.7983 61.5218 54.7695 61.3366 54.7731 61.2503C54.7767 61.164 54.7839 61.0903 54.7947 61.0292C54.6149 61.1227 54.4909 61.2036 54.4226 61.2719C54.2967 61.3978 54.1907 61.5596 54.1044 61.7573C54.0756 61.9155 54.0522 61.9982 54.0343 62.0054C54.0163 62.0162 53.9929 62.0234 53.9641 62.027C53.9354 62.0306 53.9048 62.0431 53.8725 62.0647C53.8401 62.0863 53.8095 62.1043 53.7808 62.1187C53.752 62.133 53.7232 62.1474 53.6945 62.1618C53.6262 62.2013 53.5812 62.2211 53.5596 62.2211C53.3547 62.2858 53.1588 62.2571 52.9718 62.1348C52.8927 62.0809 52.8316 62.0126 52.7884 61.9299C52.7453 61.8436 52.7345 61.7519 52.7561 61.6548C52.9107 60.9897 53.1228 60.3119 53.3925 59.6216C53.5579 59.2009 53.7161 58.8683 53.8671 58.6238C53.903 58.5663 53.939 58.5052 53.9749 58.4404C54.0504 58.311 54.1026 58.2229 54.1313 58.1762C54.0954 58.0827 54.0954 58.0018 54.1313 57.9335C54.1709 57.8616 54.2284 57.8058 54.3039 57.7663C54.383 57.7231 54.4729 57.6944 54.5736 57.68C54.6743 57.6656 54.7695 57.6638 54.8594 57.6746C55.0752 57.707 55.1902 57.7915 55.2046 57.9281C55.183 57.9928 55.1525 58.0701 55.1129 58.16C55.077 58.2499 55.0392 58.3416 54.9996 58.4351C54.9637 58.5249 54.9277 58.6094 54.8918 58.6885C54.8594 58.7676 54.8343 58.827 54.8163 58.8665C54.8019 58.9025 54.7785 58.9672 54.7462 59.0607C54.7174 59.1506 54.685 59.2494 54.6491 59.3573C54.6167 59.4616 54.5862 59.5587 54.5574 59.6485L54.4927 59.8373C54.4783 59.8876 54.4549 59.9649 54.4226 60.0692C54.3902 60.1699 54.3561 60.2957 54.3201 60.4467C54.3668 60.4108 54.4046 60.3694 54.4334 60.3227C54.4657 60.2724 54.5107 60.2166 54.5682 60.1555C54.6293 60.0944 54.7066 60.0351 54.8001 59.9775C54.8972 59.9164 54.9996 59.8769 55.1075 59.8589C55.3412 59.8193 55.5534 59.8948 55.7439 60.0854C55.8877 60.2292 55.9327 60.4449 55.8788 60.7326C55.8572 60.8512 55.8302 60.9717 55.7979 61.0939C55.7691 61.2126 55.7583 61.3222 55.7655 61.4229ZM57.0859 61.7897C57.0643 61.8652 57.0391 61.9317 57.0104 61.9892C56.9816 62.0467 56.9385 62.1007 56.8809 62.151C56.8234 62.2013 56.7551 62.2481 56.676 62.2912C56.5969 62.338 56.5214 62.3703 56.4495 62.3883C56.2841 62.4243 56.1978 62.3757 56.1906 62.2427C56.1798 62.2067 56.1564 62.1852 56.1205 62.178C56.0881 62.1744 56.0576 62.1654 56.0288 62.151C55.9533 62.1187 55.9317 62.0306 55.9641 61.8867C56.0216 61.689 56.0845 61.4499 56.1528 61.1694C56.2212 60.8854 56.3092 60.5744 56.4171 60.2364C56.6724 59.4166 56.9888 58.6778 57.3663 58.0198C57.3915 57.9874 57.4203 57.9461 57.4526 57.8957C57.485 57.8418 57.5263 57.7933 57.5767 57.7501C57.7025 57.6351 57.8571 57.6081 58.0405 57.6692C58.0369 57.716 58.0477 57.7591 58.0728 57.7987C58.098 57.8346 58.1268 57.8724 58.1591 57.9119C58.2418 58.0054 58.2796 58.0899 58.2724 58.1654C57.8913 59.0679 57.5479 60.0764 57.2423 61.191C57.2063 61.3204 57.1776 61.4337 57.156 61.5308C57.1344 61.6279 57.111 61.7142 57.0859 61.7897ZM58.326 59.6647C58.3728 59.5461 58.4842 59.4652 58.6604 59.422C58.8258 59.3789 58.9804 59.3843 59.1242 59.4382C59.2716 59.4957 59.3382 59.5892 59.3238 59.7187C59.2842 59.8445 59.2339 59.9991 59.1728 60.1825C59.1152 60.3622 59.0595 60.5474 59.0056 60.738C58.8618 61.227 58.7791 61.5721 58.7575 61.7735C58.7036 62.0971 58.6137 62.2715 58.4878 62.2966C58.4519 62.3038 58.4177 62.3092 58.3854 62.3128C58.3063 62.3164 58.2559 62.338 58.2343 62.3775C58.2128 62.4171 58.1768 62.4458 58.1265 62.4638C58.0761 62.4854 58.0204 62.4944 57.9593 62.4908C57.9018 62.4908 57.8424 62.4764 57.7813 62.4476C57.7202 62.4225 57.668 62.3847 57.6249 62.3344C57.5242 62.2121 57.5045 62.0485 57.5656 61.8436C57.6231 61.4517 57.7687 60.9537 58.0024 60.3497C58.1139 60.0512 58.2218 59.8229 58.326 59.6647ZM59.3454 58.8557C59.1692 58.8917 59.0254 58.8809 58.9139 58.8234C58.806 58.7658 58.7431 58.6975 58.7251 58.6184C58.7071 58.5357 58.7323 58.4512 58.8006 58.3649C58.8797 58.2571 58.9984 58.187 59.1566 58.1546C59.2285 58.1474 59.2806 58.1438 59.313 58.1438C59.3454 58.1438 59.3849 58.151 59.4316 58.1654C59.5503 58.1762 59.6276 58.2283 59.6636 58.3218C59.7139 58.4009 59.7175 58.4908 59.6743 58.5915C59.6348 58.6921 59.5251 58.7802 59.3454 58.8557ZM61.6121 59.8481C61.6732 59.7366 61.7541 59.6809 61.8548 59.6809C62.0094 59.7672 62.1065 59.9074 62.146 60.1016C62.1856 60.2957 62.1424 60.4701 62.0166 60.6247C62.013 60.6283 62.0148 60.6589 62.022 60.7164C62.0867 61.076 62.0633 61.4499 61.9519 61.8382C61.9123 61.9676 61.8656 62.0881 61.8116 62.1996C61.7613 62.311 61.6966 62.4512 61.6175 62.6202C61.542 62.7892 61.4341 62.9564 61.2939 63.1218C61.1537 63.2872 60.9954 63.4184 60.8193 63.5155C60.4489 63.724 60.0354 63.769 59.5788 63.6503C59.4134 63.5856 59.2984 63.5101 59.2337 63.4238C59.151 63.3196 59.1222 63.2081 59.1474 63.0894C59.1725 62.942 59.2588 62.8611 59.4062 62.8467C59.4781 62.8396 59.568 62.8665 59.6759 62.9276C59.7981 62.9528 59.897 62.951 59.9725 62.9222C60.048 62.8935 60.1074 62.8665 60.1505 62.8413C60.1972 62.8198 60.2548 62.791 60.3231 62.7551C60.4417 62.6939 60.5766 62.5537 60.7276 62.3344C60.8103 62.2193 60.893 62.0647 60.9757 61.8706C60.8426 62.0396 60.6305 62.1222 60.3393 62.1187C60.2566 62.1151 60.1631 62.1115 60.0588 62.1079C59.9581 62.1043 59.8665 62.0701 59.7838 62.0054C59.7011 61.9407 59.6346 61.8562 59.5842 61.7519C59.5339 61.6476 59.4997 61.529 59.4817 61.396C59.4674 61.2593 59.4674 61.1209 59.4817 60.9807C59.5393 60.4917 59.7442 60.1052 60.0966 59.8211C60.3375 59.6234 60.5963 59.5173 60.8732 59.5029C61.0062 59.4957 61.1321 59.5101 61.2507 59.5461C61.3946 59.6 61.515 59.7007 61.6121 59.8481ZM60.9541 61.0724C60.9541 61.0616 60.9559 61.0526 60.9595 61.0454C60.9415 61.0382 60.9235 61.0328 60.9056 61.0292C60.8876 61.022 60.8552 61.0112 60.8085 60.9969C60.7617 60.9825 60.6988 60.9915 60.6197 61.0238C60.5406 61.0526 60.4705 61.0939 60.4094 61.1479C60.3519 61.1982 60.3051 61.2521 60.2692 61.3097C60.2368 61.3672 60.2314 61.4157 60.253 61.4553C60.2781 61.4948 60.3213 61.511 60.3824 61.5038C60.4435 61.493 60.5101 61.4661 60.582 61.4229C60.7402 61.3258 60.8642 61.209 60.9541 61.0724ZM65.1932 61.4229C65.1932 61.6135 65.2165 61.7789 65.2633 61.9191C65.2633 62.0342 65.2363 62.1151 65.1824 62.1618C65.1284 62.2121 65.0601 62.2373 64.9774 62.2373C64.8983 62.2409 64.8138 62.2247 64.7239 62.1888C64.6341 62.1564 64.5568 62.1151 64.492 62.0647C64.4309 62.0144 64.3914 61.9748 64.3734 61.9461C64.3554 61.9137 64.3266 61.867 64.2871 61.8058C64.226 61.5218 64.1972 61.3366 64.2008 61.2503C64.2044 61.164 64.2116 61.0903 64.2224 61.0292C64.0426 61.1227 63.9186 61.2036 63.8502 61.2719C63.7244 61.3978 63.6183 61.5596 63.532 61.7573C63.5033 61.9155 63.4799 61.9982 63.4619 62.0054C63.4439 62.0162 63.4206 62.0234 63.3918 62.027C63.363 62.0306 63.3325 62.0431 63.3001 62.0647C63.2678 62.0863 63.2372 62.1043 63.2084 62.1187C63.1797 62.133 63.1509 62.1474 63.1221 62.1618C63.0538 62.2013 63.0089 62.2211 62.9873 62.2211C62.7824 62.2858 62.5864 62.2571 62.3995 62.1348C62.3204 62.0809 62.2592 62.0126 62.2161 61.9299C62.1729 61.8436 62.1621 61.7519 62.1837 61.6548C62.3383 60.9897 62.5505 60.3119 62.8201 59.6216C62.9855 59.2009 63.1437 58.8683 63.2947 58.6238C63.3307 58.5663 63.3666 58.5052 63.4026 58.4404C63.4781 58.311 63.5302 58.2229 63.559 58.1762C63.523 58.0827 63.523 58.0018 63.559 57.9335C63.5986 57.8616 63.6561 57.8058 63.7316 57.7663C63.8107 57.7231 63.9006 57.6944 64.0012 57.68C64.1019 57.6656 64.1972 57.6638 64.2871 57.6746C64.5028 57.707 64.6179 57.7915 64.6323 57.9281C64.6107 57.9928 64.5801 58.0701 64.5406 58.16C64.5046 58.2499 64.4669 58.3416 64.4273 58.4351C64.3914 58.5249 64.3554 58.6094 64.3195 58.6885C64.2871 58.7676 64.2619 58.827 64.2439 58.8665C64.2296 58.9025 64.2062 58.9672 64.1738 59.0607C64.1451 59.1506 64.1127 59.2494 64.0768 59.3573C64.0444 59.4616 64.0138 59.5587 63.9851 59.6485L63.9204 59.8373C63.906 59.8876 63.8826 59.9649 63.8502 60.0692C63.8179 60.1699 63.7837 60.2957 63.7478 60.4467C63.7945 60.4108 63.8323 60.3694 63.861 60.3227C63.8934 60.2724 63.9383 60.2166 63.9959 60.1555C64.057 60.0944 64.1343 60.0351 64.2278 59.9775C64.3248 59.9164 64.4273 59.8769 64.5352 59.8589C64.7689 59.8193 64.981 59.8948 65.1716 60.0854C65.3154 60.2292 65.3604 60.4449 65.3064 60.7326C65.2848 60.8512 65.2579 60.9717 65.2255 61.0939C65.1968 61.2126 65.186 61.3222 65.1932 61.4229ZM66.918 57.9658L66.9234 57.9443L66.972 57.8957C67.0115 57.8022 67.0547 57.7465 67.1014 57.7285C67.1266 57.7213 67.1589 57.7124 67.1985 57.7016C67.238 57.6908 67.2902 57.6638 67.3549 57.6207C67.3801 57.5703 67.4322 57.5488 67.5113 57.556C67.5904 57.5596 67.6677 57.5847 67.7432 57.6315C67.8223 57.6746 67.8852 57.7357 67.932 57.8148C67.9823 57.8939 67.9949 57.9766 67.9697 58.0629C67.9446 58.1456 67.923 58.2085 67.905 58.2517C67.8906 58.2912 67.8744 58.329 67.8565 58.3649C67.8421 58.4009 67.8223 58.4422 67.7971 58.489C67.7756 58.5321 67.7468 58.5915 67.7108 58.667L67.5329 59.0391C67.5149 59.0858 67.4987 59.1128 67.4843 59.12C67.4735 59.1272 67.4628 59.1398 67.452 59.1578C67.4843 59.1506 67.5113 59.1452 67.5329 59.1416C67.5544 59.138 67.576 59.1344 67.5976 59.1308C67.6479 59.1236 67.7054 59.1164 67.7702 59.1092C67.8097 59.1164 67.8439 59.12 67.8726 59.12H67.9481C67.9913 59.12 68.0434 59.1326 68.1046 59.1578C68.1657 59.1793 68.2052 59.2189 68.2232 59.2764C68.2412 59.3339 68.243 59.3933 68.2286 59.4544C68.2142 59.5119 68.1855 59.5658 68.1423 59.6162C68.0992 59.6665 68.0434 59.6935 67.9751 59.6971C67.6623 59.7834 67.4394 59.8301 67.3063 59.8373L67.274 59.8751V59.8804C67.238 59.9667 67.1985 60.0764 67.1553 60.2094C67.1158 60.3389 67.0708 60.4809 67.0205 60.6355C66.9738 60.7865 66.9252 60.9447 66.8749 61.1101C66.8246 61.2719 66.7724 61.4283 66.7185 61.5793C66.5459 62.0863 66.4201 62.3613 66.341 62.4045C66.3122 62.4189 66.2816 62.4279 66.2493 62.4315C66.2205 62.4387 66.2043 62.444 66.2007 62.4476C66.0749 62.4404 65.9706 62.4153 65.8879 62.3721C65.8052 62.329 65.7495 62.2876 65.7207 62.2481C65.692 62.2085 65.6848 62.1636 65.6992 62.1133C65.7675 61.4876 65.9041 60.8027 66.109 60.0584C66.0371 60.0584 65.9868 60.0656 65.958 60.08C65.9041 60.1088 65.8394 60.1249 65.7639 60.1285H65.7585C65.701 60.1249 65.6488 60.098 65.6021 60.0476C65.5553 59.9973 65.5266 59.9398 65.5158 59.8751C65.505 59.8103 65.5158 59.7438 65.5481 59.6755C65.5805 59.6072 65.6452 59.5533 65.7423 59.5137C65.8574 59.4813 65.9419 59.4544 65.9958 59.4328C66.1001 59.3897 66.1863 59.3591 66.2547 59.3411C66.3266 59.3231 66.3661 59.3124 66.3733 59.3088C66.3841 59.3016 66.3913 59.2962 66.3949 59.2926C66.4057 59.2854 66.4326 59.2818 66.4758 59.2818C66.4974 59.1775 66.5189 59.0715 66.5405 58.9636C66.5621 58.8557 66.589 58.7461 66.6214 58.6346C66.6933 58.3757 66.7922 58.1528 66.918 57.9658ZM70.2756 59.6863L70.2972 59.6917C70.3044 59.6917 70.3079 59.6935 70.3079 59.6971C70.4014 59.6611 70.4787 59.6881 70.5399 59.778C70.5794 59.8391 70.61 59.9326 70.6315 60.0584C70.6387 60.231 70.6208 60.4701 70.5776 60.7757C70.4949 61.3942 70.45 61.7627 70.4428 61.8813C70.45 62.0072 70.3727 62.0935 70.2109 62.1402C70.0706 62.1834 69.9304 62.1816 69.7902 62.1348C69.6428 62.0845 69.5817 62.0072 69.6068 61.9029C69.5781 61.9569 69.5493 61.9946 69.5205 62.0162C69.4918 62.0413 69.4342 62.0737 69.3479 62.1133C69.2653 62.1564 69.1466 62.1906 68.992 62.2157C68.8374 62.2445 68.6828 62.2517 68.5282 62.2373C68.3736 62.2265 68.2315 62.1888 68.1021 62.124C67.9763 62.0629 67.8918 61.9658 67.8486 61.8328C67.7659 61.5739 67.7767 61.2449 67.881 60.8458C67.9529 60.5834 68.0823 60.3515 68.2693 60.1501C68.485 59.92 68.7295 59.7294 69.0028 59.5784C69.2077 59.467 69.4055 59.4004 69.596 59.3789C69.6608 59.3717 69.7165 59.3735 69.7632 59.3843C69.8136 59.3951 69.8657 59.4058 69.9196 59.4166C69.9772 59.4274 70.0311 59.4436 70.0814 59.4652C70.2109 59.5191 70.2756 59.5928 70.2756 59.6863ZM69.2778 61.1155C69.303 61.0652 69.3228 61.0022 69.3372 60.9267C69.3551 60.8512 69.3785 60.7685 69.4073 60.6787C69.116 60.7973 68.8931 60.9429 68.7385 61.1155C68.5695 61.3061 68.5803 61.4373 68.7709 61.5092C68.9363 61.5524 69.0567 61.5254 69.1322 61.4283C69.1646 61.3852 69.1933 61.3312 69.2185 61.2665C69.2437 61.2018 69.2742 61.1353 69.3102 61.067C69.2994 61.0849 69.2886 61.1011 69.2778 61.1155ZM71.7271 62.0162L71.5923 62.1402C71.5204 62.1906 71.4502 62.2211 71.3819 62.2319L71.3873 62.2373L71.3604 62.2589C71.1051 62.2804 70.9163 62.2247 70.7941 62.0917C70.6682 61.9515 70.6413 61.7681 70.7132 61.5416C70.8714 60.6463 71.0925 59.8157 71.3765 59.0499C71.5671 58.5321 71.7505 58.1852 71.9266 58.009C72.0201 57.9191 72.1064 57.8921 72.1855 57.9281C72.2071 57.8418 72.2448 57.7753 72.2988 57.7285C72.3527 57.6782 72.412 57.6494 72.4768 57.6422C72.5415 57.6315 72.6044 57.6422 72.6655 57.6746C72.7266 57.7034 72.7734 57.7573 72.8057 57.8364C72.8417 57.9155 72.8561 57.9928 72.8489 58.0683C72.8453 58.1402 72.8291 58.2121 72.8004 58.284C72.7752 58.3524 72.7428 58.4207 72.7033 58.489C72.6673 58.5573 72.6332 58.6256 72.6008 58.6939C72.3707 59.2476 72.2071 59.6575 72.11 59.9236L72.1586 59.8912C72.3959 59.733 72.6493 59.6629 72.919 59.6809C73.0377 59.6917 73.1437 59.724 73.2372 59.778C73.3343 59.8283 73.4044 59.9056 73.4475 60.0099C73.4943 60.1142 73.5123 60.249 73.5015 60.4144C73.4943 60.5762 73.4637 60.7452 73.4098 60.9213C73.3559 61.0939 73.2822 61.2629 73.1887 61.4283C73.0988 61.5937 72.9981 61.7375 72.8866 61.8598C72.635 62.1366 72.3923 62.2409 72.1586 62.1726C72.0579 62.187 71.941 62.1402 71.808 62.0324C71.7792 62.0072 71.7523 61.9874 71.7271 61.973V62.0162ZM71.8727 61.6279C71.9266 61.5667 72.0183 61.4517 72.1478 61.2827C72.2808 61.1137 72.3689 60.9825 72.412 60.889C72.4588 60.7919 72.448 60.702 72.3797 60.6193C72.3114 60.533 72.2251 60.5978 72.1208 60.8135C71.9554 61.1587 71.8727 61.4301 71.8727 61.6279ZM74.2688 59.6647C74.3155 59.5461 74.427 59.4652 74.6032 59.422C74.7686 59.3789 74.9232 59.3843 75.067 59.4382C75.2144 59.4957 75.2809 59.5892 75.2665 59.7187C75.227 59.8445 75.1767 59.9991 75.1155 60.1825C75.058 60.3622 75.0023 60.5474 74.9483 60.738C74.8045 61.227 74.7218 61.5721 74.7003 61.7735C74.6463 62.0971 74.5564 62.2715 74.4306 62.2966C74.3946 62.3038 74.3605 62.3092 74.3281 62.3128C74.249 62.3164 74.1987 62.338 74.1771 62.3775C74.1555 62.4171 74.1196 62.4458 74.0692 62.4638C74.0189 62.4854 73.9632 62.4944 73.9021 62.4908C73.8445 62.4908 73.7852 62.4764 73.7241 62.4476C73.663 62.4225 73.6108 62.3847 73.5677 62.3344C73.467 62.2121 73.4472 62.0485 73.5083 61.8436C73.5659 61.4517 73.7115 60.9537 73.9452 60.3497C74.0567 60.0512 74.1645 59.8229 74.2688 59.6647ZM75.2881 58.8557C75.1119 58.8917 74.9681 58.8809 74.8567 58.8234C74.7488 58.7658 74.6859 58.6975 74.6679 58.6184C74.6499 58.5357 74.6751 58.4512 74.7434 58.3649C74.8225 58.2571 74.9412 58.187 75.0994 58.1546C75.1713 58.1474 75.2234 58.1438 75.2558 58.1438C75.2881 58.1438 75.3277 58.151 75.3744 58.1654C75.4931 58.1762 75.5704 58.2283 75.6063 58.3218C75.6567 58.4009 75.6603 58.4908 75.6171 58.5915C75.5776 58.6921 75.4679 58.7802 75.2881 58.8557ZM76.3468 61.7897C76.3252 61.8652 76.3 61.9317 76.2712 61.9892C76.2425 62.0467 76.1993 62.1007 76.1418 62.151C76.0843 62.2013 76.016 62.2481 75.9369 62.2912C75.8578 62.338 75.7823 62.3703 75.7104 62.3883C75.545 62.4243 75.4587 62.3757 75.4515 62.2427C75.4407 62.2067 75.4173 62.1852 75.3814 62.178C75.349 62.1744 75.3184 62.1654 75.2897 62.151C75.2142 62.1187 75.1926 62.0306 75.225 61.8867C75.2825 61.689 75.3454 61.4499 75.4137 61.1694C75.482 60.8854 75.5701 60.5744 75.678 60.2364C75.9333 59.4166 76.2497 58.6778 76.6272 58.0198C76.6524 57.9874 76.6811 57.9461 76.7135 57.8957C76.7459 57.8418 76.7872 57.7933 76.8375 57.7501C76.9634 57.6351 77.118 57.6081 77.3014 57.6692C77.2978 57.716 77.3086 57.7591 77.3337 57.7987C77.3589 57.8346 77.3877 57.8724 77.42 57.9119C77.5027 58.0054 77.5405 58.0899 77.5333 58.1654C77.1521 59.0679 76.8088 60.0764 76.5032 61.191C76.4672 61.3204 76.4384 61.4337 76.4169 61.5308C76.3953 61.6279 76.3719 61.7142 76.3468 61.7897ZM77.5869 59.6647C77.6337 59.5461 77.7451 59.4652 77.9213 59.422C78.0867 59.3789 78.2413 59.3843 78.3851 59.4382C78.5325 59.4957 78.599 59.5892 78.5847 59.7187C78.5451 59.8445 78.4948 59.9991 78.4337 60.1825C78.3761 60.3622 78.3204 60.5474 78.2665 60.738C78.1226 61.227 78.0399 61.5721 78.0184 61.7735C77.9644 62.0971 77.8746 62.2715 77.7487 62.2966C77.7128 62.3038 77.6786 62.3092 77.6462 62.3128C77.5671 62.3164 77.5168 62.338 77.4952 62.3775C77.4737 62.4171 77.4377 62.4458 77.3874 62.4638C77.337 62.4854 77.2813 62.4944 77.2202 62.4908C77.1626 62.4908 77.1033 62.4764 77.0422 62.4476C76.9811 62.4225 76.9289 62.3847 76.8858 62.3344C76.7851 62.2121 76.7653 62.0485 76.8265 61.8436C76.884 61.4517 77.0296 60.9537 77.2633 60.3497C77.3748 60.0512 77.4826 59.8229 77.5869 59.6647ZM78.6062 58.8557C78.4301 58.8917 78.2862 58.8809 78.1748 58.8234C78.0669 58.7658 78.004 58.6975 77.986 58.6184C77.968 58.5357 77.9932 58.4512 78.0615 58.3649C78.1406 58.2571 78.2593 58.187 78.4175 58.1546C78.4894 58.1474 78.5415 58.1438 78.5739 58.1438C78.6062 58.1438 78.6458 58.151 78.6925 58.1654C78.8112 58.1762 78.8885 58.2283 78.9244 58.3218C78.9748 58.4009 78.9784 58.4908 78.9352 58.5915C78.8957 58.6921 78.786 58.7802 78.6062 58.8557ZM80.0694 57.9658L80.0748 57.9443L80.1233 57.8957C80.1629 57.8022 80.206 57.7465 80.2527 57.7285C80.2779 57.7213 80.3103 57.7124 80.3498 57.7016C80.3894 57.6908 80.4415 57.6638 80.5062 57.6207C80.5314 57.5703 80.5835 57.5488 80.6626 57.556C80.7417 57.5596 80.819 57.5847 80.8945 57.6315C80.9736 57.6746 81.0366 57.7357 81.0833 57.8148C81.1336 57.8939 81.1462 57.9766 81.1211 58.0629C81.0959 58.1456 81.0743 58.2085 81.0563 58.2517C81.042 58.2912 81.0258 58.329 81.0078 58.3649C80.9934 58.4009 80.9736 58.4422 80.9485 58.489C80.9269 58.5321 80.8981 58.5915 80.8622 58.667L80.6842 59.0391C80.6662 59.0858 80.65 59.1128 80.6357 59.12C80.6249 59.1272 80.6141 59.1398 80.6033 59.1578C80.6357 59.1506 80.6626 59.1452 80.6842 59.1416C80.7058 59.138 80.7273 59.1344 80.7489 59.1308C80.7993 59.1236 80.8568 59.1164 80.9215 59.1092C80.9611 59.1164 80.9952 59.12 81.024 59.12H81.0995C81.1426 59.12 81.1948 59.1326 81.2559 59.1578C81.317 59.1793 81.3566 59.2189 81.3745 59.2764C81.3925 59.3339 81.3943 59.3933 81.3799 59.4544C81.3655 59.5119 81.3368 59.5658 81.2936 59.6162C81.2505 59.6665 81.1948 59.6935 81.1264 59.6971C80.8136 59.7834 80.5907 59.8301 80.4577 59.8373L80.4253 59.8751V59.8804C80.3894 59.9667 80.3498 60.0764 80.3067 60.2094C80.2671 60.3389 80.2222 60.4809 80.1718 60.6355C80.1251 60.7865 80.0766 60.9447 80.0262 61.1101C79.9759 61.2719 79.9238 61.4283 79.8698 61.5793C79.6972 62.0863 79.5714 62.3613 79.4923 62.4045C79.4635 62.4189 79.433 62.4279 79.4006 62.4315C79.3718 62.4387 79.3557 62.444 79.3521 62.4476C79.2262 62.4404 79.122 62.4153 79.0393 62.3721C78.9566 62.329 78.9008 62.2876 78.8721 62.2481C78.8433 62.2085 78.8361 62.1636 78.8505 62.1133C78.9188 61.4876 79.0554 60.8027 79.2604 60.0584C79.1885 60.0584 79.1381 60.0656 79.1094 60.08C79.0554 60.1088 78.9907 60.1249 78.9152 60.1285H78.9098C78.8523 60.1249 78.8002 60.098 78.7534 60.0476C78.7067 59.9973 78.6779 59.9398 78.6671 59.8751C78.6563 59.8103 78.6671 59.7438 78.6995 59.6755C78.7318 59.6072 78.7966 59.5533 78.8936 59.5137C79.0087 59.4813 79.0932 59.4544 79.1471 59.4328C79.2514 59.3897 79.3377 59.3591 79.406 59.3411C79.4779 59.3231 79.5175 59.3124 79.5246 59.3088C79.5354 59.3016 79.5426 59.2962 79.5462 59.2926C79.557 59.2854 79.584 59.2818 79.6271 59.2818C79.6487 59.1775 79.6703 59.0715 79.6918 58.9636C79.7134 58.8557 79.7404 58.7461 79.7727 58.6346C79.8446 58.3757 79.9435 58.1528 80.0694 57.9658ZM81.151 60.3497C81.1546 60.2022 81.1438 60.0818 81.1186 59.9883C81.0934 59.8948 81.0934 59.8175 81.1186 59.7564C81.1474 59.6917 81.1905 59.6467 81.248 59.6216C81.3092 59.5964 81.3793 59.5892 81.4584 59.6C81.5411 59.6072 81.622 59.6306 81.7011 59.6701C81.8916 59.7564 82.0247 59.8787 82.1002 60.0369C82.1182 60.116 82.111 60.2148 82.0786 60.3335C82.0498 60.4485 82.0157 60.569 81.9761 60.6948C81.9366 60.8171 81.8988 60.9375 81.8629 61.0562C81.8269 61.1712 81.8125 61.2683 81.8197 61.3474C81.9132 61.2899 81.9941 61.2036 82.0624 61.0885C82.1343 60.9735 82.1991 60.8512 82.2566 60.7218C82.3177 60.5888 82.3734 60.4575 82.4238 60.3281C82.4777 60.1987 82.528 60.0962 82.5748 60.0207C82.6251 59.9452 82.6647 59.8858 82.6934 59.8427C82.7222 59.796 82.751 59.7546 82.7797 59.7187C82.8265 59.6575 82.8876 59.5982 82.9631 59.5407C82.9847 59.5227 83.0494 59.5263 83.1573 59.5515C83.2687 59.573 83.3496 59.5892 83.4 59.6C83.4539 59.6072 83.4898 59.6036 83.5078 59.5892L83.5833 59.5353C83.684 59.4849 83.8027 59.4867 83.9393 59.5407C84.0723 59.5982 84.1424 59.6863 84.1496 59.8049C84.146 59.8085 84.1442 59.8157 84.1442 59.8265L84.1604 59.8319L84.1227 59.8643C84.0975 59.911 84.0777 59.9434 84.0633 59.9613C84.0525 59.9757 84.0274 59.9991 83.9878 60.0315C83.7433 60.2939 83.4629 60.7811 83.1465 61.493C83.0674 61.6692 82.9955 61.8274 82.9307 61.9676C83.0278 62.0288 83.1015 62.1079 83.1519 62.2049C83.2022 62.302 83.2022 62.4081 83.1519 62.5231C82.8534 62.7604 82.6863 62.9834 82.6503 63.1919C82.6323 63.3213 82.6089 63.413 82.5802 63.467C82.555 63.5209 82.5137 63.573 82.4561 63.6234C82.262 63.7672 82.0337 63.7312 81.7712 63.5155C81.5842 63.3285 81.5752 63.0948 81.7442 62.8144C81.7874 62.7389 81.8287 62.6598 81.8683 62.5771C81.9258 62.4548 82.0175 62.2733 82.1433 62.0324C81.8341 62.2121 81.5501 62.2085 81.2912 62.0216C81.1078 61.8813 81.0431 61.5631 81.097 61.067C81.133 60.7362 81.151 60.4971 81.151 60.3497Z" fill="#E5E5E5"/>
</svg>
